<svg width="300" height="200" xmlns="http://www.w3.org/2000/svg">
  <rect x="50" y="20" width="200" height="120" rx="10" ry="10" fill="#cccccc" stroke="#333" stroke-width="2"/>
  <rect x="70" y="40" width="160" height="80" fill="#000000" />
  
  <rect x="135" y="140" width="30" height="10" fill="#666" />
  <rect x="120" y="150" width="60" height="10" fill="#999" rx="5" ry="5"/>

  <rect x="80" y="165" width="140" height="20" rx="5" ry="5" fill="#dddddd" stroke="#333" stroke-width="1"/>
  
  <g fill="#bbb">
    <rect x="85" y="168" width="10" height="10" />
    <rect x="98" y="168" width="10" height="10" />
    <rect x="111" y="168" width="10" height="10" />
    <rect x="124" y="168" width="10" height="10" />
    <rect x="137" y="168" width="10" height="10" />
    <rect x="150" y="168" width="10" height="10" />
    <rect x="163" y="168" width="10" height="10" />
    <rect x="176" y="168" width="10" height="10" />
    <rect x="189" y="168" width="10" height="10" />
    <rect x="202" y="168" width="10" height="10" />
  </g>
</svg>